<svg viewBox="0 0 159.38 119.8" xmlns="http://www.w3.org/2000/svg"><g transform="translate(-20.31 -18.73)"><path d="m49.56 34.14 76.35 40.33a3.28 3.28 0 0 1 .72 5.3 35.72 35.72 0 0 1 -8 5.46c-24.69 12.4-53.53-6.56-51.93-34.13l10.21 7.06a26 26 0 0 0 35.24 19.25zm30.87 11.25 51.28 20.27a3.11 3.11 0 0 1 1.86 3.74v.06a3.12 3.12 0 0 1 -4.49 1.88zm18.88-26.55c9.67-.83 21.76 2.81 29 12.09 6.06 7.84 7.31 17.41 6.88 27.3a3.13 3.13 0 0 1 -4.27 2.66l-34.92-13.81 32.36 8.68a26 26 0 0 0 -48.87-14.76 25.61 25.61 0 0 0 -1.42 3.16l-8.68-4.66c.25-.36.51-.71.76-1.06.42-.86.87-1.73 1.36-2.59a33.1 33.1 0 0 1 25.54-16.77c.76-.08 1.51-.17 2.26-.24z" fill="#45af5d" fill-rule="evenodd"/><path d="m34 129.66a17.62 17.62 0 0 0 7.11-1.32 10.6 10.6 0 0 0 4.66-3.7 9.53 9.53 0 0 0 1.64-5.52 8.56 8.56 0 0 0 -1.48-5.05 10.1 10.1 0 0 0 -4.16-3.32 18.16 18.16 0 0 0 -6.23-1.5l-2.96-.25a5.46 5.46 0 0 1 -3.58-1.36 3.78 3.78 0 0 1 -1.13-2.71 4.66 4.66 0 0 1 .63-2.36 4.48 4.48 0 0 1 1.91-1.73 7.15 7.15 0 0 1 3.18-.63 6.84 6.84 0 0 1 3.3.7 4.76 4.76 0 0 1 1.95 1.87 5 5 0 0 1 .66 2.52h6.32a10.37 10.37 0 0 0 -1.5-5.62 10 10 0 0 0 -4.24-3.68 14.75 14.75 0 0 0 -6.5-1.32 15.07 15.07 0 0 0 -6.34 1.25 9.43 9.43 0 0 0 -5.7 9 8.74 8.74 0 0 0 2.84 6.8 12.65 12.65 0 0 0 7.61 3l2.91.22a9.54 9.54 0 0 1 4.64 1.35 3.31 3.31 0 0 1 1.5 2.84 4.34 4.34 0 0 1 -.77 2.52 5.36 5.36 0 0 1 -2.37 1.79 10 10 0 0 1 -3.95.69 9.81 9.81 0 0 1 -4.25-.78 5.12 5.12 0 0 1 -2.34-2 5 5 0 0 1 -.73-2.57h-6.32a10.21 10.21 0 0 0 1.59 5.62 10.66 10.66 0 0 0 4.62 3.88 17.49 17.49 0 0 0 7.48 1.37zm25.5-.86v-11.55h2.68l8.28 11.55h7.13l-10.44-14.16 8.39-10.52h-6.54l-9.55 11.88v-20.38h-6.32v33.18zm25 9.72a15.75 15.75 0 0 0 5.12-.72 7.33 7.33 0 0 0 3.38-2.39 12 12 0 0 0 2-4.41l7.32-26.91h-6l-5 19.13h-1l-6-19.13h-6.32l8 24.13h4l-.36 1.41a6 6 0 0 1 -.8 1.89l-.11.16a3.25 3.25 0 0 1 -1.48 1.09 6.66 6.66 0 0 1 -2.21.32h-4.63v5.4zm28.91-9.72v-14.5a5.16 5.16 0 0 1 1.44-3.84 5 5 0 0 1 3.75-1.43 4.62 4.62 0 0 1 3.56 1.4 5.21 5.21 0 0 1 1.3 3.69v14.68h6.32v-14.14c0-3.76-.76-6.58-2.27-8.48a8.08 8.08 0 0 0 -6.69-2.84h-.27a8.92 8.92 0 0 0 -4.93 1.28 7.7 7.7 0 0 0 -3 3.79 14.67 14.67 0 0 0 -.48 1.5l-.06.28v-6.07h-5v24.68zm34.55.86a13.52 13.52 0 0 0 5.43-1 10.29 10.29 0 0 0 3.94-3 10.53 10.53 0 0 0 2.09-4.45h-5.82a4.16 4.16 0 0 1 -1.86 2.29 6.92 6.92 0 0 1 -3.78.93 6.67 6.67 0 0 1 -3.82-1 6 6 0 0 1 -2.22-2.82 9.5 9.5 0 0 1 -.62-2.4v-.21h18.56v-2.27a14 14 0 0 0 -1.37-6.12 11.11 11.11 0 0 0 -4.07-4.59 12.12 12.12 0 0 0 -6.7-1.75 12.69 12.69 0 0 0 -5.36 1.07 11.5 11.5 0 0 0 -3.89 2.86 12.24 12.24 0 0 0 -2.36 4.1 14.4 14.4 0 0 0 -.8 4.75v.86a14 14 0 0 0 .8 4.64 12.79 12.79 0 0 0 2.36 4.11 11.28 11.28 0 0 0 4 2.93 13.28 13.28 0 0 0 5.44 1.07zm5.83-15.54h-12.46v-.27a9.67 9.67 0 0 1 .41-1.41l.1-.26a6 6 0 0 1 2.2-2.75 6.4 6.4 0 0 1 3.55-1 6.22 6.22 0 0 1 3.48.91 5.53 5.53 0 0 1 2.07 2.59 9.78 9.78 0 0 1 .51 1.85zm25.95 15v-5.41h-3.87a3.42 3.42 0 0 1 -3.77-3.78v-11.18h7.62v-4.63h-7.61v-7h-5.91v7h-3.94v4.63h3.93v10.78a12.82 12.82 0 0 0 1 5.48l.1.22a6.21 6.21 0 0 0 3.3 3 15.2 15.2 0 0 0 5.61.89h3.55z" fill="#0c0d0d"/></g></svg>