<svg height="96" viewBox="0 0 374 96" width="374" xmlns="http://www.w3.org/2000/svg"><g fill="none" fill-rule="evenodd"><path d="m0 21.0279239 104.14462 55.0052758c2.731241 1.4288808 3.229359 5.1280454.973231 7.2284559h-.053085c-3.271827 2.9639324-6.9302931 5.4713307-10.8754198 7.4531839-33.6543458 16.9121095-72.995018-8.9493061-70.8140947-46.5505482l13.9260583 9.6172969c4.1680851 21.9499098 27.3575379 34.6160756 48.0776369 26.2595559zm42.1055344 15.3416677 69.9488036 27.6486227c2.02786.7962803 3.122303 2.9993226 2.530402 5.0961941v.0884756c-.748504 2.6179928-3.73367 3.8646139-6.122511 2.5569446zm25.755245-36.21305996c13.1917108-1.13248758 29.6747137 3.83099315 39.4955046 16.49185046 8.272468 10.6878515 9.980047 23.746849 9.396108 37.2305293v-.0353903c-.232691 2.8604159-3.162118 4.6821284-5.830542 3.6274993l-47.5467831-18.7922158 44.1404731 11.8380343c.757351-7.7761199-1.06967-15.5849756-5.198826-22.2179908-14.4524879-23.21422596-48.6155684-22.07819935-61.4940756 2.0455557-.7378865 1.3899515-1.3846431 2.8259104-1.9376155 4.2999138l-11.8380343-6.3083098c.3362073-.4954633.6901096-.9643839 1.044012-1.4421521.5662438-1.1767254 1.1767254-2.3711459 1.8491399-3.5390237 7.847785-13.58985102 20.9864105-21.58804458 34.8416883-22.87094067 1.0263169-.08847559 2.0526337-.2388841 3.0789506-.32735969z" fill="#00c65e"/><path d="m21.018 61.178c3.72 0 6.9543333-.5993333 9.703-1.798s4.867-2.883 6.355-5.053 2.232-4.681 2.232-7.533c0-2.6866667-.6716667-4.9806667-2.015-6.882s-3.2343333-3.41-5.673-4.526-5.27-1.798-8.494-2.046l-3.968-.372c-2.232-.1653333-3.8646667-.775-4.898-1.829s-1.55-2.2836667-1.55-3.689c0-1.1573333.2893333-2.232.868-3.224s1.4466667-1.7773333 2.604-2.356 2.604-.868 4.34-.868c1.8186667 0 3.317.3203333 4.495.961s2.0666667 1.488 2.666 2.542.899 2.201.899 3.441h8.618c0-2.9346667-.682-5.487-2.046-7.657s-3.286-3.8543333-5.766-5.053-5.4353333-1.798-8.866-1.798c-3.3066667 0-6.1896667.5683333-8.649 1.705-2.45933333 1.1366667-4.371 2.7486667-5.735 4.836s-2.046 4.5776667-2.046 7.471c0 3.844 1.29166667 6.9336667 3.875 9.269 2.5833333 2.3353333 6.045 3.689 10.385 4.061l3.968.31c2.852.248 4.96.8576667 6.324 1.829s2.046 2.263 2.046 3.875c0 1.2813333-.3513333 2.4283333-1.054 3.441s-1.7773333 1.829-3.224 2.449-3.2446667.93-5.394.93c-2.3973333 0-4.3296667-.3513333-5.797-1.054s-2.5316667-1.6223333-3.193-2.759-.992-2.3043333-.992-3.503h-8.618c0 2.852.72333333 5.4043333 2.17 7.657s3.54433333 4.0196667 6.293 5.301c2.7486667 1.2813333 6.1276667 1.922 10.137 1.922zm34.786-1.178-.001-15.748h3.659l11.284 15.748h9.734l-14.178-19.313 11.45-14.353h-8.99l-12.959 16.213.001-27.807h-8.618v45.26zm34.104 13.268c2.7693333 0 5.0943333-.3306667 6.975-.992s3.420333-1.7463333 4.619-3.255 2.128667-3.503 2.79-5.983l9.982-36.704h-8.246l-6.781 26.102h-1.316l-8.209-26.102h-8.68l10.912 32.922h5.521l-.499 1.922c-.2604 1.0416-.62124 1.89906-1.08252 2.57238l-.15748.21762c-.5373333.7026667-1.209 1.1986667-2.015 1.488s-1.8083333.434-3.007.434h-6.324v7.378zm39.436-13.268v-19.778c0-2.1906667.651-3.937 1.953-5.239s3.007-1.953 5.115-1.953c2.066667 0 3.689.6406667 4.867 1.922s1.767 2.9553333 1.767 5.022v20.026h8.618v-19.282c0-5.1253333-1.033333-8.9796667-3.1-11.563s-5.104667-3.875-9.114-3.875h-.372c-2.686667 0-4.929.5786667-6.727 1.736s-3.151667 2.883-4.061 5.177c-.252593.6372222-.470103 1.3182973-.652531 2.0432253l-.091469.3817747v-8.284h-6.82v33.666zm47.124 1.178c2.769333 0 5.239-.4753333 7.409-1.426s3.957667-2.294 5.363-4.03 2.356-3.7613333 2.852-6.076h-7.936c-.372 1.24-1.219333 2.2836667-2.542 3.131s-3.038 1.271-5.146 1.271-3.844-.465-5.208-1.395-2.376667-2.2113333-3.038-3.844c-.406974-1.0047179-.688726-2.0994398-.845254-3.2841657l-.033746-.2808343h25.307v-3.1c0-2.976-.62-5.7556667-1.86-8.339s-3.089667-4.6706667-5.549-6.262-5.507667-2.387-9.145-2.387c-2.769333 0-5.208.4856667-7.316 1.457s-3.875 2.2733333-5.301 3.906-2.500667 3.4926667-3.224 5.58-1.085 4.247-1.085 6.479v1.178c0 2.1493333.361667 4.2573333 1.085 6.324s1.798 3.937 3.224 5.611 3.224 3.007 5.394 3.999 4.701667 1.488 7.595 1.488zm7.949-21.203h-16.922l.069041-.3603469c.139183-.6811565.321862-1.3214541.548036-1.9208929l.140923-.3547602c.682-1.6326667 1.684333-2.883 3.007-3.751s2.934667-1.302 4.836-1.302 3.482333.4133333 4.743 1.24 2.201 2.0046667 2.821 3.534c.31.7646667.5425 1.6068333.6975 2.5265zm35.393 20.459v-7.378h-5.27c-1.653333 0-2.924333-.4443333-3.813-1.333s-1.333-2.1596667-1.333-3.813l.03-15.252h10.386v-6.324h-10.373l.019-9.486h-8.06l-.019 9.486h-5.375v6.324h5.362l-.03 14.694c0 3.1020667.44764 5.5979542 1.34292 7.4876625l.14508.2933375c.992 1.922 2.490333 3.286 4.495 4.092s4.557 1.209 7.657 1.209z" fill="#fff" fill-rule="nonzero" transform="translate(151 11)"/></g></svg>